<svg xmlns="http://www.w3.org/2000/svg" viewBox="124 -5 124 124">
  <title>Boxer Dragon</title>
  <rect x="124" y="-5" width="124" height="124" rx="16" fill="#fff"/>
  <g fill="#b51218">
    <path d="M219.2,57.6c-18-12-42.8-9.6-42.8-9.6-1.4-2.4-1.3-5.8-1.3-6.4s-.7-1.1-.9,0a18.4,18.4,0,0,0,.9,10.4c.7,2.2,3,1.3,5.2,1.1,27-2.3,32.4,3.8,32.4,3.8-.7,6.5,1.2,14,2.5,15.3a1,1,0,0,0,1.5-.7c.7-7.3,2.3-11.4,2.9-12.3a1.1,1.1,0,0,0-.4-1.6"/>
    <path d="M164.3,16.6c.2,1.2.8,1.3,1.4-.1s.8-5.5.2-7.4c0,0,4.1.9,11.4,8.1.9.9,1.8.1,1.3-1.3S173,.9,157,1.9c-.6.1-.6.6-.1,1.1s6.9,9,7.4,13.6"/>
    <path d="M154.9,25.1c-.1.9.4,1,1.1.1a8.7,8.7,0,0,0,1.4-4.4,27.9,27.9,0,0,1,6,8.8c.5,1.1,1.4.7,1.1-.6s-.6-13.4-11.2-18.2c-1-.3-1.1.6-.7,1.2s2.8,8.4,2.3,13.1"/>
    <path d="M165.9,71.2c7.1.3,11.2-1.7,11.7-2s.6-.9.3-.8h-1.3c-.6-.1-29,4.6-27.9-24.3a11.9,11.9,0,0,1,1.6-6.3c1.9.6,4.3-.3,3.5-.8-3.1-2.9-2.4-12-2.4-12s-.9-1-1.1-.3-4.5,10.4-4.9,20.8c-.8,20.2,11.8,25.3,20.5,25.7"/>
    <path d="M170.6,81.9c-2.8,3.2-8.4,6.8-16.9,5.9-18.8-2-19.9-18.2-20.5-23.1s0-9.3.1-10.6-.9-1.1-1.1-.4A87.1,87.1,0,0,0,131,64.1c-.4,17.1,9.3,27.6,23,27.6s17.2-8,17.4-9.1-.2-1.3-.8-.7"/>
    <path d="M183.5,68.1c-1.5.1-1.4.6-.7.8,15.7,3.9,20.8,13,19.4,26.6-.2,1.4-.3.5-.4,0-2-14.8-12.6-21.3-23.6-21.8-7.1-.2-12.8,4.3-13.4,5.2s.1,1,.5.7a20.3,20.3,0,0,1,3.5-1.9c16.9-6.6,27.8,9.8,29.9,19.2s.8,13.6.2,17.6c-.2,1.3,1.2.9,1.6.1s6.7-15.8,5.4-27.1c-2.2-19.3-20.9-19.4-22.4-19.4"/>
    <path d="M161.3,79.1c.7-.1.8-.8,0-.9-9.1-.8-20.7-4.9-20.9-24.5-.4-3.5.4-9.1.5-10.4s-.8-.9-1.1,0-2.7,6.4-2,16.7c2,27.1,26.2,18.7,23.5,19.1"/>
    <path d="M182.2,18.4c-.5-.6-1.1-1.6-1.3-4.4a30.5,30.5,0,0,1,21.3.6s.7,9.1,2.3,11.1A26.4,26.4,0,0,0,217.3,22c3.5-2.1,1.3,7,1.3,7s2.3-2,6.7-1c10.9,2.3-.2,19-.2,19H225c-14-.6-22.4-13.6-37-14.3-11.4-.5-12,2.9-12.6,6-.2.7-.7.7-.8.1s-1.3-7.3,1.6-10.3a24.7,24.7,0,0,1,8.6-.9c17,.8,26.8,15.7,36.4,16.2,0,0,9.4-10.9,1.6-13-2.4-.7-7.4.8-8.2.2s-.5-.3-.2-.9a6.3,6.3,0,0,0,.9-4.4c-.4-1.6-4.8,2-11.9,1.3,0,0-3.8-8.9-4.4-11.8,0,0-3-1-15.5,3.3-.8.3-1.2,0-1.3-.1"/>
    <path d="M206.7,60.4a27.7,27.7,0,0,0-11.3-3c-3.9-.2-9.5.4-13.6.2-13.8-.7-19-8.2-18.7-14.4a25.2,25.2,0,0,1,.7-5.1c.2-.8-.5-.9-.9-.4a17.3,17.3,0,0,0-3.4,9.2c-.4,8.2,6.1,15.4,15.6,15.9s19.4-2.2,23.5-2.1,5.4,1.2,7.2,1.4,1.5-.7,1.5-1.1,0-.3-.6-.6"/>
    <path d="M200.3,26.1c-3.9-4.6-9.1-8.1-9.9-8.1s-4.1.8-4.1,1.4,4.2,1.3,6.9,3.5a2.3,2.3,0,0,0-1.2,3.7,37.2,37.2,0,0,1,7.2,2.9c2.4,1.2,2.7-1.5,1.1-3.4"/>
    <path d="M240.8,53.5l-3.2.2c-19.3,0-29.3-13.2-44.5-14.9-8.8-.9-13.2,1.4-14,1.4s-1.2,1.3-.2,1.1,3.2-.3,6-.3c16.6,0,28.3,14.5,47.2,14.5,4.7,0,8.3-.9,8.9-1.6s.2-.4-.2-.4"/>
  </g>
</svg>
